# xmcd CD database file
#
# Track frame offsets:
#	150
#	13667
#	25892
#	39851
#	55526
#	70301
#	77876
#	92876
#	104051
#	114026
#	129776
#	149426
#	160826
#	179964
#
# Disc length: 2512 seconds
#
# Revision: 1
# Processed by: cddbd v1.5.1PL0 Copyright (c) Steve Scherf et al.
# Submitted via: CDex 1.51
#
DISCID=b709ce0e
DTITLE=MUZA - Messe N1
DYEAR=2005
DGENRE=New Age
TTITLE0=Kyrie Eleison
TTITLE1=Gloria
TTITLE2=Domine Deus
TTITLE3=Credo
TTITLE4=Et incornatus
TTITLE5=Et in Spiritum Sanctum
TTITLE6=Confiteor
TTITLE7=Sanctus
TTITLE8=Agnus Dei
TTITLE9=Ave Verum Corpus
TTITLE10=Stabat Master
TTITLE11=Eja Master
TTITLE12=Virgo Virginum
TTITLE13=Flammuis Urar ne succensus
EXTD=YEAR: 2005
EXTT0=
EXTT1=
EXTT2=
EXTT3=
EXTT4=
EXTT5=
EXTT6=
EXTT7=
EXTT8=
EXTT9=
EXTT10=
EXTT11=
EXTT12=
EXTT13=
PLAYORDER=
